<?xml version="1.0" encoding="iso-8859-1"?>
<!-- Uploaded to: SVG Repo, www.svgrepo.com, Generator: SVG Repo Mixer Tools -->
<svg fill="#FFFF" height="800px" width="800px" version="1.1" id="Layer_1" xmlns="http://www.w3.org/2000/svg" xmlns:xlink="http://www.w3.org/1999/xlink" 
	 viewBox="0 0 511.999 511.999" xml:space="preserve">
<g>
	<g>
		<path d="M456.559,341.333H430.93v-61.195c9.943-3.514,17.067-12.99,17.067-24.138v-17.067c0-14.142-11.458-25.6-25.6-25.6h-85.333
			v-57.721c5.236-4.687,8.533-11.495,8.533-19.079v-17.067c0-14.142-11.458-25.6-25.6-25.6h-26.094l13.89-11.644
			c9.55-8.055,16.346-18.504,19.268-30.045c1.399-5.511,1.706-10.13,1.324-13.716c-0.036-0.341-0.077-0.647-0.119-0.918
			C326.1,16.405,309.668,0,288.555,0c-11.169,0-21.438,3.981-28.772,10.963C252.762,3.937,243.036,0,231.971,0
			c-21.113,0-37.544,16.405-39.711,37.542c-0.042,0.271-0.083,0.577-0.119,0.918c-0.381,3.586-0.074,8.204,1.326,13.715
			c2.918,11.535,9.709,21.975,19.243,30.027l13.914,11.664h-26.094c-14.142,0-25.6,11.458-25.6,25.6v17.067
			c0,7.583,3.297,14.392,8.533,19.079v57.721H98.13c-14.142,0-25.6,11.458-25.6,25.6v17.067c0,11.149,7.123,20.625,17.067,24.138
			v61.195H55.432c-14.117,0-25.566,11.449-25.566,25.566v17.101c0,11.107,7.139,20.596,17.061,24.126v69.741
			c0,18.85,15.287,34.133,34.133,34.133h349.867c18.853,0,34.133-15.281,34.133-34.133v-69.736
			c9.928-3.527,17.073-13.019,17.073-24.13v-17.101C482.133,352.78,470.682,341.333,456.559,341.333z M223.709,69.153
			c-6.881-5.815-11.683-13.2-13.7-21.172c-0.897-3.53-1.069-6.114-0.898-7.716c0.006-0.055,0.105-0.773,0.105-0.773
			c1.227-12.882,10.721-22.424,22.754-22.424c9.383,0,16.43,4.389,19.9,12.053c3.027,6.685,12.521,6.685,15.548,0
			c3.322-7.338,11.389-12.053,21.137-12.053c12.033,0,21.527,9.542,22.754,22.424l0.14,0.925c0.136,1.452-0.036,4.04-0.931,7.567
			c-2.021,7.98-6.83,15.375-13.708,21.176l-29.473,24.707h-14.147L223.709,69.153z M191.996,119.466
			c0-4.716,3.817-8.533,8.533-8.533h49.538c0.007,0,0.013,0.001,0.019,0.001h20.352c0.007,0,0.013-0.001,0.019-0.001h49.538
			c4.717,0,8.533,3.817,8.533,8.533v17.067c0,2.926-1.471,5.504-3.713,7.041c-0.189,0.092-0.38,0.171-0.567,0.279
			c-1.386,0.804-2.818,1.213-4.254,1.213c-15.765,0-25.299,5.962-38.321,19.738c-0.267,0.283-2.519,2.677-3.164,3.355
			c-7.851,8.261-12.18,11.04-18.249,11.04c-6.069,0-10.398-2.778-18.249-11.04c-0.645-0.679-2.897-3.073-3.164-3.355
			c-13.022-13.776-22.556-19.738-38.321-19.738c-1.436,0-2.867-0.409-4.254-1.213c-0.186-0.108-0.378-0.187-0.567-0.279
			c-2.242-1.537-3.713-4.115-3.713-7.041V119.466z M200.529,162.133c9.879,0,15.827,3.72,25.918,14.395
			c0.24,0.254,2.514,2.671,3.195,3.388c10.811,11.377,18.56,16.35,30.62,16.35c12.06,0,19.81-4.974,30.62-16.35
			c0.681-0.717,2.955-3.134,3.195-3.388c10.091-10.675,16.039-14.395,25.918-14.395v51.2H200.529V162.133z M89.596,238.932
			c0-4.716,3.817-8.533,8.533-8.533h93.867H328.53h93.867c4.716,0,8.533,3.817,8.533,8.533v17.067c0,4.716-3.817,8.533-8.533,8.533
			c-12.942,0-19.79,5.484-28.661,18.282c-0.859,1.243-1.354,1.96-1.693,2.447c-7.068,10.166-11.437,13.405-20.846,13.405
			c-9.409,0-13.779-3.239-20.846-13.405c-0.338-0.486-0.833-1.204-1.693-2.447c-8.871-12.798-15.719-18.282-28.661-18.282
			c-15.765,0-25.299,5.962-38.321,19.738c-0.267,0.283-2.519,2.677-3.164,3.355c-7.851,8.261-12.18,11.04-18.249,11.04
			c-6.069,0-10.398-2.778-18.249-11.04c-0.645-0.679-2.897-3.073-3.164-3.355c-13.022-13.776-22.556-19.738-38.321-19.738
			c-16.235,0-24.927,6.443-34.859,20.729c-0.357,0.514-0.873,1.26-1.706,2.466c-5.972,8.616-8.873,10.938-14.635,10.938
			c-5.762,0-8.663-2.323-14.635-10.938c-0.833-1.206-1.349-1.952-1.706-2.466c-9.932-14.286-18.624-20.729-34.859-20.729
			c-4.716,0-8.533-3.817-8.533-8.533V238.932z M106.663,283.03c0.072,0.03,0.147,0.054,0.219,0.085
			c0.085,0.037,0.169,0.075,0.254,0.113c0.359,0.161,0.713,0.333,1.06,0.521c0.015,0.008,0.031,0.015,0.046,0.024
			c0.359,0.196,0.711,0.412,1.061,0.639c0.082,0.053,0.164,0.107,0.245,0.161c0.345,0.232,0.688,0.475,1.028,0.738
			c0.036,0.028,0.071,0.058,0.107,0.086c0.315,0.247,0.627,0.51,0.94,0.786c0.075,0.066,0.15,0.131,0.225,0.199
			c0.334,0.302,0.668,0.619,1.002,0.955c0.06,0.061,0.121,0.125,0.181,0.187c0.299,0.306,0.599,0.625,0.901,0.959
			c0.065,0.072,0.13,0.142,0.196,0.215c0.337,0.379,0.678,0.777,1.021,1.193c0.077,0.093,0.154,0.189,0.232,0.284
			c0.316,0.388,0.635,0.79,0.959,1.21c0.045,0.059,0.089,0.114,0.135,0.173c0.358,0.468,0.723,0.959,1.093,1.467
			c0.087,0.12,0.175,0.241,0.263,0.363c0.376,0.521,0.756,1.054,1.147,1.616c0.338,0.487,0.833,1.204,1.693,2.447
			c8.871,12.798,15.719,18.282,28.661,18.282s19.79-5.484,28.661-18.282c0.859-1.243,1.354-1.96,1.693-2.447
			c7.068-10.166,11.437-13.404,20.846-13.404c9.879,0,15.827,3.72,25.918,14.395c0.24,0.254,2.514,2.671,3.195,3.388
			c10.811,11.376,18.56,16.35,30.62,16.35c12.06,0,19.81-4.974,30.62-16.35c0.681-0.717,2.955-3.134,3.195-3.388
			c10.091-10.675,16.039-14.395,25.918-14.395c5.762,0,8.663,2.323,14.635,10.938c0.833,1.206,1.349,1.952,1.706,2.466
			c9.932,14.286,18.624,20.729,34.859,20.729s24.927-6.443,34.859-20.729c0.357-0.514,0.873-1.26,1.706-2.466
			c0.341-0.492,0.669-0.957,0.991-1.409c0.1-0.14,0.196-0.272,0.294-0.408c0.223-0.309,0.442-0.61,0.657-0.9
			c0.108-0.146,0.214-0.288,0.32-0.429c0.208-0.277,0.412-0.543,0.614-0.803c0.094-0.121,0.19-0.246,0.283-0.363
			c0.263-0.332,0.52-0.65,0.773-0.952c0.024-0.029,0.049-0.06,0.073-0.089c0.274-0.326,0.543-0.631,0.808-0.924
			c0.081-0.09,0.161-0.172,0.241-0.259c0.185-0.199,0.37-0.392,0.552-0.575c0.092-0.092,0.183-0.182,0.274-0.27
			c0.075-0.072,0.148-0.138,0.222-0.208v56.383h-307.2V283.03z M430.927,494.932H81.06c-9.422,0-17.067-7.643-17.067-17.067V410.46
			c0.115,0.022,0.231,0.042,0.346,0.065c0.252,0.05,0.504,0.103,0.755,0.157c0.33,0.07,0.661,0.144,0.991,0.221
			c0.253,0.059,0.506,0.118,0.759,0.181c0.336,0.083,0.671,0.171,1.007,0.26c0.243,0.065,0.485,0.128,0.727,0.195
			c0.38,0.106,0.758,0.219,1.136,0.333c0.194,0.058,0.388,0.113,0.582,0.173c0.552,0.172,1.102,0.353,1.649,0.541
			c0.218,0.075,0.434,0.155,0.651,0.232c0.346,0.123,0.692,0.246,1.035,0.375c0.248,0.093,0.494,0.19,0.741,0.286
			c0.309,0.12,0.617,0.242,0.924,0.367c0.255,0.104,0.508,0.21,0.762,0.317c0.297,0.125,0.592,0.253,0.885,0.382
			c0.251,0.11,0.501,0.221,0.75,0.334c0.296,0.135,0.588,0.273,0.881,0.411c0.24,0.114,0.482,0.227,0.72,0.343
			c0.319,0.156,0.634,0.317,0.949,0.478c0.203,0.104,0.408,0.204,0.609,0.31c0.487,0.255,0.966,0.516,1.44,0.781
			c0.229,0.128,0.452,0.26,0.678,0.391c0.264,0.152,0.529,0.305,0.789,0.46c0.24,0.143,0.475,0.289,0.711,0.435
			c0.238,0.147,0.474,0.294,0.708,0.443c0.238,0.152,0.473,0.305,0.706,0.46c0.223,0.147,0.443,0.296,0.662,0.445
			c0.232,0.159,0.464,0.318,0.691,0.479c0.208,0.147,0.411,0.296,0.614,0.445c0.227,0.166,0.455,0.331,0.677,0.499
			c0.192,0.146,0.377,0.294,0.564,0.44c0.429,0.336,0.846,0.675,1.25,1.017c0.157,0.133,0.318,0.264,0.471,0.397
			c0.213,0.186,0.415,0.373,0.62,0.56c0.155,0.141,0.312,0.282,0.462,0.424c0.2,0.189,0.393,0.379,0.585,0.57
			c0.143,0.142,0.285,0.283,0.423,0.425c0.187,0.192,0.369,0.385,0.548,0.579c0.129,0.14,0.255,0.28,0.38,0.421
			c0.175,0.198,0.349,0.395,0.514,0.594c0.111,0.133,0.216,0.266,0.322,0.399c0.166,0.207,0.333,0.414,0.489,0.622
			c0.073,0.098,0.139,0.196,0.21,0.295c0.352,0.488,0.676,0.976,0.966,1.464c0.034,0.058,0.073,0.115,0.106,0.173
			c0.125,0.216,0.235,0.432,0.347,0.648c0.064,0.123,0.131,0.247,0.191,0.37c0.1,0.206,0.189,0.412,0.276,0.618
			c0.056,0.131,0.111,0.263,0.162,0.394c0.078,0.203,0.15,0.405,0.216,0.608c0.043,0.132,0.081,0.263,0.119,0.395
			c0.058,0.202,0.113,0.404,0.157,0.604c0.028,0.126,0.047,0.251,0.07,0.376c0.037,0.206,0.076,0.412,0.099,0.616
			c0.01,0.092,0.01,0.183,0.018,0.274c0.017,0.219,0.036,0.439,0.036,0.656v8.533c0,13.221,12.379,25.6,25.6,25.6
			c0.001,0,0.002,0,0.003,0s0.002,0,0.003,0c13.246,0,25.6-12.354,25.6-25.6v-8.533c0-17.84,10.657-25.599,34.13-25.6
			c15.524,0,23.57,3.947,35.882,14.907c0.517,0.46,2.591,2.318,3.115,2.784c13.074,11.639,22.328,16.442,37.801,16.442
			c0.001,0,0.002,0,0.003,0s0.002,0,0.003,0c15.478,0,24.732-4.804,37.809-16.446c0.523-0.465,2.594-2.321,3.11-2.78
			c2.82-2.511,5.413-4.637,7.927-6.449c8.461-6.096,15.988-8.458,27.956-8.458c4.61,0,8.411,0.341,11.736,1.1
			c7.628,1.743,12.723,5.719,19.122,13.046c0.425,0.486,0.969,1.114,1.967,2.266c10.73,12.345,19.05,17.521,34.592,17.704
			c0.282,0.003,0.548,0.017,0.835,0.018c0.001,0,0.002,0,0.003,0c0.001,0,0.003,0,0.004,0c7.569,0,13.768-1.885,19.745-5.744
			c5.089-3.283,10.016-7.991,15.481-14.237c0.832-0.95,3.544-4.094,3.685-4.256c1.364-1.571,2.384-2.715,3.353-3.749
			c0.137-0.146,0.268-0.281,0.402-0.422v62.54C447.994,487.293,440.354,494.932,430.927,494.932z M465.066,383.999
			c0,4.674-3.859,8.533-8.533,8.533c-0.001,0-0.002,0-0.004,0c-0.001,0-0.001,0-0.002,0c-8.05,0-14.279,3.955-21.396,11.546
			c-1.146,1.222-2.296,2.512-3.79,4.233c-0.176,0.203-2.853,3.305-3.637,4.201c-6.784,7.753-11.758,11.896-17.133,13.436
			c-1.687,0.483-3.412,0.717-5.247,0.717c-0.113,0-0.215-0.005-0.327-0.006c-9.991-0.059-14.313-2.744-22.224-11.846
			c-0.973-1.122-1.543-1.78-1.992-2.295c-8.173-9.359-15.75-15.16-26.123-17.962c-0.638-0.172-1.285-0.335-1.945-0.485
			c-0.137-0.031-0.273-0.063-0.411-0.093c-4.475-0.977-9.471-1.447-15.234-1.447c0,0-0.001,0-0.001,0c-0.001,0-0.001,0-0.002,0
			c-16.083,0-26.76,3.592-37.992,11.727c-3.002,2.174-6.042,4.654-9.238,7.499c-0.542,0.482-2.614,2.338-3.112,2.781
			c-10.248,9.122-16.034,12.125-26.46,12.126c-10.426-0.001-16.211-3.004-26.457-12.126c-0.497-0.443-2.569-2.299-3.111-2.781
			c-15.153-13.49-26.848-19.227-47.229-19.227c-0.001,0-0.002,0-0.003,0c-0.001,0-0.002,0-0.003,0
			c-31.944,0-51.2,14.018-51.2,42.667v8.533c0,3.82-4.71,8.531-8.53,8.533c-3.799-0.002-8.53-4.736-8.53-8.533v-8.533
			c0-22.881-32.353-42.667-59.733-42.667c-4.674,0-8.533-3.859-8.533-8.533v-17.101c0-4.691,3.808-8.499,8.499-8.499H98.13h324.267
			h34.162c4.699,0,8.508,3.808,8.508,8.499V383.999z"/>
	</g>
</g>
</svg>